<svg width="256" height="256" xmlns="http://www.w3.org/2000/svg">
 <!-- 圆形浅色容器：对齐默认插件图标的圆底样式 -->

 <!-- 音箱主体：单色实心 -->
 <!-- 顶部指示灯：用容器色镂空 -->
 <!-- 扬声器外环：容器色镂空形成圆环 -->
 <!-- 扬声器中心实心 -->
 <!-- 扬声器中心高光点 -->
 <g>
  <title>Layer 1</title>
  <circle id="svg_1" fill="#E3EEFF" r="128" cy="128" cx="128"/>
  <circle id="svg_3" fill="#E3EEFF" r="9" cy="96" cx="128"/>
  <circle id="svg_4" fill="#E3EEFF" r="26" cy="152" cx="128"/>
  <circle id="svg_6" fill="#E3EEFF" r="4" cy="152" cx="128"/>
  <g stroke="null">
   <path stroke="null" d="m120.50866,38.19506c-7.96523,-1.35508 -14.48223,4.51112 -14.48223,12.58934l0,83.49395c-4.71482,-1.72969 -9.78644,-2.72352 -15.09821,-2.72352c-24.26057,0 -43.92822,19.66846 -43.92822,43.92984c0,24.25976 19.66765,43.92498 43.92822,43.92498c13.82656,0 26.13767,-6.40685 34.18309,-16.39457l-20.1107,-20.11313c-6.12174,-6.12012 -4.74155,-11.70445 -3.86436,-13.82616c0.8772,-2.11928 3.85302,-7.04672 12.50712,-7.04672l7.32292,0l0,-23.03752c0,-8.55812 5.91965,-15.73849 13.87718,-17.71603c0.01296,-17.97036 0.01296,-33.13094 0.01296,-33.13094c56.7573,0 53.34612,34.00813 46.70479,53.53728c-2.6,7.64772 -1.05336,8.9299 4.41149,2.97825c69.26078,-75.43355 -27.16309,-99.95129 -65.46406,-106.46505z" fill="#5ed698"/>
   <path stroke="null" d="m159.89539,128.66608l-20.65176,0c-1.58389,0 -3.06735,0.38473 -4.40987,1.02177c-3.48934,1.65638 -5.91884,5.18299 -5.91884,9.3037l0,30.98533l-15.27114,0c-5.70299,0 -7.05806,3.26863 -3.02361,7.30146l18.99092,18.99294l12.65575,12.65413a10.29632,10.29632 0 0 0 7.30308,3.02685c2.64171,0 5.28585,-1.00598 7.30146,-3.02685l31.65032,-31.64748c4.03,-4.03283 2.67613,-7.30146 -3.02523,-7.30146l-15.27195,0l0,-30.98533c0.0004,-5.70137 -4.62492,-10.32507 -10.32912,-10.32507z" fill="#4daf7c"/>
  </g>
 </g>
</svg>